<svg xmlns="http://www.w3.org/2000/svg" xmlns:xlink="http://www.w3.org/1999/xlink" version="1.1" x="0px" y="0px" viewBox="0 3.5 160.5 114.6875" enable-background="new 0 3.5 160.5 91.75" xml:space="preserve"><g><path d="M36,32.999h49.999c1.144,0,2.127-0.647,2.633-1.589l-3.306-4.411H36c-1.657,0-3,1.343-3,3S34.343,32.999,36,32.999z"/><path d="M61.975,51.169V47H16c-1.657,0-3,1.344-3,3c0,1.657,1.343,3,3,3h46.143C62.043,52.431,61.975,51.832,61.975,51.169z"/><path d="M86,67.002H36c-1.657,0-3,1.342-3,3c0,1.656,1.343,3,3,3h49.327l3.306-4.411C88.126,67.649,87.144,67.002,86,67.002z"/><path d="M136.005,42.941l-14.438,0.019l-26.43-25.551c-1.451-1.401-2.874-1.985-4.137-1.985c-3.875,0-6.246,5.495-3.327,9.704   l13.384,17.86l-25.511,0.033l-3.514-3.587c-2.017-2.093-3.469-2.934-4.511-2.935c-2.556,0-2.643,5.064-2.547,9.147   c0,0.451,0,0.902,0,1.354c0,1.39,0,2.78,0,4.169c0,0.688,0.092,1.292,0.249,1.831c1.178,4.065,6.361,4.151,9.135,4.23l26.52,0.024   L87.674,74.873c-2.919,4.208-0.547,9.703,3.327,9.703c1.263,0,2.685-0.583,4.137-1.985l26.188-25.317l15.803,0.016   C156.548,57.289,146.112,42.941,136.005,42.941z"/></g></svg>